<svg width="518" height="518" viewBox="0 0 518 518" fill="none" xmlns="http://www.w3.org/2000/svg">
<rect width="518" height="518" rx="101" fill="black"/>
<path fill-rule="evenodd" clip-rule="evenodd" d="M279.781 14.1099C268.26 19.1731 259.127 30.9488 245.061 58.8754C233.184 82.4562 227.495 91.8605 225.103 91.8605C222.473 91.8605 211.282 83.7933 201.259 74.6741C190.351 64.7514 182.181 60.0534 175.827 60.0534C164.704 60.0534 154.268 66.3465 151.071 74.9815C148.616 81.6092 149.516 152.204 152.146 159.319C155.561 168.563 165.516 173.578 200.128 183.49C209.044 186.042 232.992 193.206 253.344 199.41C273.697 205.613 301.139 213.18 314.327 216.226C334.915 220.981 340.363 221.783 352.873 221.9L367.443 222.034L369.585 217.601C378.411 199.335 390.233 113.118 386.179 96.5726L384.592 90.0934L375.173 90.2112C360.8 90.3915 352.271 94.2978 334.538 108.824L327.492 114.597L324.934 111.18C321.385 106.44 319.016 97.6494 315.915 77.724C310.743 44.4821 304.207 25.8431 294.501 16.6544C288.647 11.1118 287.18 10.8585 279.781 14.1099ZM271.699 62.115C268.308 67.1358 262.703 77.6062 259.241 85.3813C251.594 102.561 243.302 114.837 236.211 119.48L230.911 122.949L223.418 120.453C219.191 119.045 212.272 114.99 207.542 111.153C195.346 101.253 180.221 90.6824 178.25 90.6824C177.144 90.6824 176.814 101.562 177.314 121.606C177.972 148.042 178.493 152.848 180.892 154.725C184.713 157.712 236.063 174.903 268.985 184.216C300.381 193.099 346.101 204.122 347.516 203.15C348.55 202.441 356.059 136.642 356.238 126.725L356.341 120.946L352.659 123.19C350.636 124.425 345.713 128.88 341.722 133.092C337.73 137.303 332.613 141.917 330.349 143.343C326.002 146.082 315.18 149.584 311.063 149.584C304.215 149.584 297.875 130.366 291.005 88.8C287.876 69.8571 282.334 52.9852 279.242 52.9852C278.483 52.9852 275.09 57.0942 271.699 62.115ZM139.711 201.124C133.658 210.807 131.012 221.328 131 235.752C130.981 259.791 135.472 267.935 153.639 276.815C159.781 279.818 167.311 284.525 170.373 287.278C181.715 297.473 187.521 318.91 189.079 356.33C189.943 377.065 189.389 387.075 185.654 418.178C183.203 438.587 180.683 461.734 180.052 469.615C178.941 483.536 179.032 484.092 183.282 489.065C191.843 499.084 213.799 506.788 234.376 506.996C254.865 507.201 268.667 499.903 275.219 485.401C278.758 477.57 278.816 462.68 275.559 399.522C271.584 322.443 274.922 311.326 304.236 304.003C322.943 299.33 327.119 297.67 335.559 291.55C347.071 283.202 354.855 272.321 355.939 263.06C356.682 256.705 356.214 255.077 352.324 250.527C345.968 243.088 334.391 238.506 303.609 231.25C289.006 227.806 265.716 221.354 251.851 216.911C201.743 200.849 177.862 195.528 155.881 195.528H143.211L139.711 201.124ZM160.476 215.167C160.457 215.704 159.66 219.853 158.705 224.388C156.24 236.088 156.326 254.389 158.865 258.201C160.177 260.168 164.563 262.623 170.367 264.638C182.564 268.869 193.369 277.227 198.907 286.717C214.903 314.119 218.136 369.954 207.089 428.071C201.556 457.184 200.347 476.347 203.635 482.817C207.204 489.835 225.76 494.936 238.901 492.511C247.895 490.85 252.717 487.573 255.119 481.492C257.812 474.673 257.321 439.055 254.179 413.465C246.559 351.398 246.669 336.126 254.861 317.995C261.926 302.355 272.788 294.952 298.026 288.57C321.803 282.558 327.138 278.364 327.138 265.686C327.138 260.253 326.509 258.915 323.273 257.468C312.437 252.623 234.291 230.654 194.008 221.128C169.134 215.246 160.528 213.716 160.476 215.167ZM226.318 444.698C211.9 448.855 208.856 464.07 220.524 473.655C224.988 477.322 225.506 477.445 230.494 476.029C238.643 473.714 242.807 469.85 244.693 462.857C248.278 449.555 239.512 440.892 226.318 444.698Z" fill="#F5B502"/>
</svg>
