<svg width="392" height="452" viewBox="0 0 392 452" fill="none" xmlns="http://www.w3.org/2000/svg">
<path fill-rule="evenodd" clip-rule="evenodd" d="M209.151 16.7944C201.86 21.1007 196.08 31.116 187.179 54.8677C179.663 74.9233 176.063 82.9217 174.55 82.9217C172.886 82.9217 165.804 76.0605 159.461 68.3046C152.558 59.8654 147.388 55.8697 143.367 55.8697C136.328 55.8697 129.724 61.222 127.701 68.5661C126.148 74.203 126.717 134.245 128.382 140.295C130.543 148.157 136.842 152.423 158.745 160.853C164.387 163.024 179.542 169.117 192.421 174.393C205.3 179.669 222.666 186.104 231.011 188.695C244.04 192.739 247.488 193.421 255.404 193.521L264.624 193.635L265.98 189.865C271.565 174.33 279.046 101.002 276.48 86.9295L275.476 81.4188L269.516 81.519C260.42 81.6723 255.023 84.9947 243.802 97.3495L239.342 102.259L237.724 99.3534C235.478 95.3216 233.979 87.8452 232.017 70.8986C228.744 42.6262 224.608 26.7737 218.466 18.9586C214.761 14.2445 213.833 14.0291 209.151 16.7944ZM204.036 57.623C201.89 61.8933 198.343 70.7984 196.153 77.4111C191.313 92.0223 186.066 102.463 181.579 106.412L178.225 109.363L173.483 107.24C170.808 106.042 166.43 102.594 163.437 99.3303C155.719 90.9101 146.147 81.9198 144.901 81.9198C144.201 81.9198 143.992 91.1726 144.308 108.22C144.725 130.705 145.054 134.792 146.573 136.389C148.99 138.929 181.485 153.55 202.319 161.471C222.187 169.026 251.118 178.401 252.014 177.574C252.669 176.971 257.42 121.009 257.533 112.574L257.599 107.659L255.269 109.568C253.988 110.618 250.873 114.407 248.348 117.989C245.821 121.571 242.583 125.495 241.15 126.708C238.4 129.038 231.552 132.016 228.946 132.016C224.613 132.016 220.601 115.671 216.253 80.3187C214.273 64.2077 210.766 49.8581 208.809 49.8581C208.329 49.8581 206.182 53.3528 204.036 57.623ZM120.513 175.851C116.682 184.086 115.008 193.035 115 205.302C114.988 225.748 117.83 232.674 129.326 240.227C133.213 242.78 137.978 246.784 139.915 249.126C147.093 257.796 150.767 276.028 151.753 307.855C152.3 325.49 151.949 334.003 149.586 360.456C148.035 377.814 146.44 397.501 146.041 404.204C145.338 416.044 145.395 416.517 148.084 420.746C153.502 429.267 167.396 435.82 180.418 435.996C193.383 436.171 202.117 429.964 206.263 417.63C208.503 410.969 208.54 398.306 206.479 344.589C203.963 279.033 206.076 269.578 224.626 263.35C236.464 259.375 239.107 257.964 244.447 252.759C251.733 245.659 256.658 236.404 257.344 228.528C257.815 223.123 257.518 221.738 255.057 217.869C251.035 211.541 243.708 207.645 224.229 201.473C214.988 198.544 200.25 193.057 191.476 189.277C159.767 175.617 144.655 171.091 130.745 171.091H122.727L120.513 175.851ZM133.653 187.795C133.641 188.251 133.137 191.78 132.532 195.637C130.972 205.588 131.027 221.153 132.633 224.395C133.464 226.068 136.239 228.156 139.912 229.87C147.63 233.469 154.468 240.577 157.972 248.648C168.095 271.954 170.141 319.442 163.15 368.87C159.649 393.631 158.883 409.929 160.964 415.432C163.223 421.401 174.965 425.74 183.281 423.677C188.973 422.264 192.024 419.478 193.544 414.306C195.248 408.505 194.937 378.212 192.949 356.448C188.127 303.66 188.197 290.671 193.381 275.25C197.852 261.948 204.725 255.652 220.696 250.224C235.742 245.111 239.119 241.544 239.119 230.761C239.119 226.14 238.721 225.002 236.673 223.772C229.816 219.651 180.364 200.966 154.872 192.864C139.132 187.862 133.686 186.56 133.653 187.795ZM175.318 383.011C166.195 386.547 164.268 399.488 171.652 407.64C174.477 410.759 174.804 410.863 177.961 409.659C183.118 407.69 185.753 404.404 186.947 398.456C189.215 387.142 183.668 379.775 175.318 383.011Z" fill="black"/>
</svg>
