<svg width="1084" height="452" viewBox="0 0 1084 452" fill="none" xmlns="http://www.w3.org/2000/svg">
<path fill-rule="evenodd" clip-rule="evenodd" d="M975.863 19.9559C967.964 23.0048 960.616 31.9334 947.931 53.8983C937.22 72.4451 932.353 79.7427 930.86 79.4938C929.219 79.2202 923.361 71.2879 918.38 62.5946C912.959 53.1352 908.516 48.3438 904.55 47.6826C897.607 46.5253 890.213 50.7189 887.01 57.6304C884.551 62.9351 875.24 122.253 875.887 128.495C876.726 136.606 882.238 141.849 902.457 153.766C907.665 156.835 921.612 165.336 933.448 172.658C945.285 179.981 961.356 189.184 969.161 193.112C981.348 199.243 984.636 200.483 992.428 201.882L1001.5 203.511L1003.46 200.015C1011.53 185.61 1030.96 114.51 1030.74 100.207L1030.66 94.6064L1024.76 93.7252C1015.77 92.3809 1009.9 94.7706 996.797 105.112L991.592 109.222L990.473 106.089C988.92 101.743 988.671 94.1221 989.522 77.0835C990.942 48.6577 989.469 32.3409 984.696 23.6223C981.817 18.3632 980.936 17.9981 975.863 19.9559ZM964.105 59.3878C961.286 63.2471 956.323 71.4478 953.075 77.6104C945.899 91.2269 939.007 100.663 933.931 103.82L930.138 106.179L925.81 103.305C923.368 101.684 919.616 97.5628 917.201 93.8519C910.972 84.2772 903.009 73.8354 901.779 73.6304C901.089 73.5153 899.362 82.6079 896.871 99.4757C893.584 121.722 893.237 125.808 894.473 127.633C896.44 130.536 926.088 150.301 945.336 161.54C963.691 172.258 990.687 186.263 991.707 185.595C992.452 185.108 1006.34 130.689 1007.84 122.387L1008.71 117.55L1006.1 119.05C1004.66 119.875 1000.97 123.101 997.888 126.218C994.807 129.336 990.967 132.674 989.355 133.635C986.259 135.481 979.014 137.293 976.444 136.864C972.17 136.152 970.9 119.369 972.424 83.7835C973.12 67.5661 972.02 52.8352 970.09 52.5134C969.616 52.4344 966.924 55.5286 964.105 59.3878ZM862.279 162.273C857.146 169.767 854.023 178.318 851.998 190.417C848.625 210.582 850.289 217.882 860.387 227.222C863.801 230.38 867.843 235.113 869.369 237.741C875.023 247.474 875.65 266.062 871.389 297.617C869.029 315.102 867.283 323.442 860.602 349.146C856.218 366.013 851.408 385.17 849.912 391.716C847.271 403.279 847.25 403.755 849.208 408.369C853.151 417.665 865.778 426.413 878.593 428.728C891.354 431.032 900.99 426.345 907.107 414.861C910.411 408.659 912.53 396.174 919.329 342.85C927.627 277.773 931.266 268.793 950.588 265.7C962.918 263.726 965.757 262.768 971.881 258.512C980.234 252.707 986.614 244.388 988.586 236.732C989.939 231.478 989.874 230.063 988.083 225.841C985.156 218.939 978.57 213.891 960.371 204.6C951.737 200.192 938.101 192.356 930.069 187.185C901.037 168.497 886.875 161.548 873.154 159.261L865.245 157.942L862.279 162.273ZM873.276 176.215C873.189 176.663 872.112 180.061 870.881 183.766C867.706 193.325 865.201 208.687 866.252 212.149C866.796 213.936 869.19 216.452 872.532 218.746C879.553 223.565 885.129 231.701 887.259 240.238C893.411 264.892 887.621 312.07 872.598 359.676C865.073 383.524 861.638 399.475 862.786 405.244C864.032 411.504 874.901 417.714 883.443 417.047C889.29 416.589 892.758 414.342 895.107 409.491C897.742 404.05 902.417 374.117 904.034 352.323C907.958 299.46 910.162 286.659 917.811 272.301C924.408 259.915 932.224 254.835 948.87 252.107C964.552 249.537 968.469 246.574 970.242 235.938C971.001 231.38 970.796 230.192 968.978 228.642C962.892 223.449 917.185 196.887 893.373 184.705C878.669 177.182 873.511 175.003 873.276 176.215ZM882.276 375.625C872.695 377.613 868.667 390.061 874.609 399.316C876.883 402.857 877.189 403.013 880.501 402.345C885.911 401.251 889.051 398.442 891.206 392.772C895.304 381.985 891.044 373.806 882.276 375.625Z" fill="black"/>
<path fill-rule="evenodd" clip-rule="evenodd" d="M132.327 154.463C98.9157 159.31 67.6347 168.542 54.0377 177.566C38.7057 187.744 50.1717 192.452 71.6217 184.787C76.4097 183.076 83.7017 180.553 87.8267 179.18C96.3027 176.359 108.827 174.858 108.827 176.663C108.827 179.757 102.488 193.646 88.9167 220.287C73.1517 251.233 71.0777 256.628 66.4157 278.831C62.0537 299.6 62.9957 304.834 71.3777 306.407C83.4797 308.677 99.9066 303.292 134.734 285.638C149.808 277.996 162.439 272.102 162.804 272.538C163.169 272.974 164.008 276.706 164.667 280.831C167.342 297.549 173.812 304.216 187.235 304.086C197.586 303.986 206.413 301.616 232.761 291.867C264.51 280.119 265.429 279.621 267.681 272.934L268.825 269.538L261.576 270.17C257.589 270.518 248.477 272.387 241.327 274.325C211.255 282.473 207.824 283.151 196.162 283.243C190.021 283.291 184.658 282.993 184.244 282.58C182.904 281.242 182.588 271.432 183.747 267.128C185.362 261.129 193.261 252.896 201.552 248.569C210.745 243.772 221.614 240.508 240.471 236.881C274.094 230.415 288.284 223.81 274.778 220.914C267.306 219.311 255.288 219.61 237.387 221.843C216.637 224.431 217.633 224.472 218.92 221.081C220.266 217.531 249.956 187.217 255.764 183.463C262.271 179.257 269.693 177.021 281.013 175.86C286.538 175.293 292.204 174.267 293.603 173.58C296.407 172.204 299.316 168.532 300.295 165.136C300.845 163.227 300.444 162.85 297.225 162.246C291.119 161.1 265.126 162.541 252.827 164.706C239.363 167.076 225.177 171.007 218.839 174.124C213.264 176.865 211.969 180.889 214.472 187.692C215.758 191.187 215.858 192.783 214.976 195.73C213.57 200.42 191.08 232.1 185.558 237.166C178.312 243.814 178.344 243.819 174.501 235.501C170.884 227.673 168.184 225.008 159.327 220.523C149.505 215.548 149.601 216.153 157.232 207.403C170.131 192.613 177.831 178.455 177.823 169.543C177.818 163.768 174.987 159.575 169.175 156.736C164.821 154.609 162.848 154.35 149.827 154.197C141.852 154.104 133.977 154.223 132.327 154.463ZM539.827 155.245C536.408 156.478 536.323 156.641 536.161 162.288C535.937 170.084 531.899 175.837 518.004 188.154C490.549 212.491 483.329 222.961 472.219 254.557L469.327 262.783L465.327 263.279C463.127 263.552 451.202 264.291 438.827 264.921C426.452 265.552 416.177 266.464 415.994 266.949C415.465 268.348 408.829 268.007 408.813 266.581C408.806 265.894 408.528 264.318 408.197 263.081C407.773 261.501 408.028 260.831 409.052 260.831C409.901 260.831 411.042 259.058 411.781 256.59C413.665 250.303 426.085 226.583 437.273 207.906C450.032 186.604 452.982 180.071 453.561 171.831C454.093 164.243 452.834 160.247 449.421 158.692C441.624 155.139 428.795 173.466 402.42 225.831C393.417 243.706 384.656 261.031 382.952 264.331C379.458 271.095 379.165 274.237 381.343 281.572C383.265 288.044 384.733 295.831 384.031 295.831C382.603 295.831 363.462 285.001 356.871 280.464C345.455 272.605 331.73 259.002 327.825 251.675L324.511 245.458L327.919 242.596C329.793 241.022 336.727 236.533 343.327 232.621C349.927 228.708 360.192 222.609 366.138 219.068C385.962 207.262 398.474 195.569 400.892 186.59C401.515 184.274 401.701 180.477 401.316 177.912C399.426 165.306 379.888 156.798 352.946 156.849C337.181 156.879 314.17 161.017 305.856 165.316C303.306 166.635 303.173 167.023 303.818 171.274C304.686 176.993 306.592 179.097 313.406 181.863C316.387 183.073 318.827 184.272 318.827 184.527C318.827 184.783 315.633 192.268 311.73 201.161C301.445 224.595 299.387 229.923 291.188 254.331C283.286 277.852 281.802 284.943 283.78 289.718C284.903 292.428 285.234 292.585 287.889 291.66C293.611 289.665 298.935 281.436 303.306 267.831C304.278 264.806 305.468 261.903 305.952 261.379C306.486 260.801 311.644 265.36 319.079 272.982C325.815 279.888 333.577 287.331 336.327 289.523C360.491 308.786 411.508 334.55 431.077 337.373C435.114 337.955 435.827 337.809 435.827 336.395C435.827 330.86 430.216 325.507 412.827 314.45C396.007 303.756 394.034 302.232 395.327 300.939C395.877 300.389 400.495 297.869 405.59 295.339C421.022 287.675 439.921 282.227 464.15 278.457L472.973 277.085L475.516 282.456C480.69 293.383 488.382 296.575 507.103 295.563C527.792 294.445 559.465 285.718 570.075 278.211C574.607 275.004 575.604 273.48 578.823 264.831C581.114 258.677 583.451 255.122 584.509 256.18C584.895 256.566 585.212 259.027 585.212 261.649C585.212 265.418 584.214 268.29 580.446 275.373C575.106 285.411 571.827 294.296 571.827 298.73C571.827 301.5 572.008 301.639 574.635 300.886C582.779 298.551 588.295 293.242 598.593 277.831C602.452 272.056 607.121 265.798 608.968 263.925C614.022 258.799 623.301 254.941 637.079 252.237C661.617 247.422 665.203 245.532 664.64 237.711C664.337 233.494 664.199 233.331 660.327 232.607C658.127 232.196 650.78 232.134 644 232.47L631.672 233.08L634.682 227.117C638.867 218.827 651.768 201.719 660.26 193.197C666.738 186.697 668.079 185.839 675.348 183.549C679.737 182.167 688.052 180.291 693.827 179.38C708.286 177.101 717.505 174.925 718.669 173.517C719.207 172.864 719.943 170.75 720.304 168.818C720.848 165.91 720.548 164.917 718.562 163.052C716.172 160.806 716.103 160.802 699.245 161.84C661.816 164.145 634.197 169.082 620.748 175.871C615.107 178.718 614.827 179.037 614.833 182.595C614.843 189.652 616.607 193.672 620.625 195.797C622.661 196.873 624.94 198.166 625.69 198.671C626.755 199.388 625.103 202.508 618.124 212.96C613.213 220.314 607.772 228.605 606.033 231.385C604.088 234.492 601.263 237.342 598.697 238.784L594.524 241.129L595.157 237.167C595.506 234.988 598.282 227.307 601.326 220.099C604.371 212.89 607.354 204.543 607.955 201.548C610.315 189.797 603.762 179.203 587.469 168.431C572.778 158.718 566.392 156.066 554.845 154.881C543.005 153.666 544.294 153.635 539.827 155.245ZM776.147 167.214C773.698 168.014 769.029 171.218 764.87 174.955C760.967 178.462 755.735 182.51 753.243 183.952C750.751 185.393 746.582 189.218 743.978 192.452C741.374 195.685 733.412 203.439 726.285 209.681C719.158 215.924 706.74 227.487 698.69 235.377C682.552 251.194 678.828 253.981 674.89 253.194C671.112 252.438 667.406 256.327 665.431 263.121C663.446 269.949 659.488 274.194 641.613 288.669C628.388 299.379 622.281 306.309 621.169 311.871L620.516 315.136L624.671 314.472C636.296 312.613 644.325 308.133 663.475 292.821C679.512 279.998 687.161 275.831 696.571 274.793C700.287 274.383 705.352 273.254 707.827 272.284C711.482 270.851 715.239 270.536 727.827 270.605C736.352 270.651 746.364 270.992 750.077 271.362L756.827 272.034L756.806 279.682C756.795 283.889 755.895 292.731 754.807 299.331C751.402 319.975 752.292 325.434 759.685 329.258L762.366 330.644L769.601 305.488C774.483 288.513 776.835 278.624 776.832 275.081C776.827 270.025 776.928 269.83 779.577 269.808C792.942 269.699 827.014 266.78 830.133 265.477C834.171 263.789 834.545 262.484 832.435 257.434C830.643 253.147 827.419 252.015 813.327 250.729C801.169 249.618 797.254 248.878 783.932 245.171C781.947 244.618 783.166 231.593 785.904 224.096C787.062 220.925 789.584 214.056 791.509 208.831C800.71 183.848 800.8 183.53 800.814 176.12L800.827 168.908L797.077 167.911C790.234 166.091 780.57 165.77 776.147 167.214ZM141.871 172.972C140.525 175.37 135.753 183.183 131.267 190.336C123.003 203.51 118.696 211.366 117.34 215.737C116.615 218.073 116.792 218.035 123.46 214.398C141.89 204.347 158.613 187.45 162.253 175.201C162.783 173.417 162.232 172.81 158.858 171.46C156.644 170.574 152.466 169.571 149.575 169.231L144.318 168.613L141.871 172.972ZM347.327 174.496L342.327 174.921L339.885 183.126C338.543 187.639 335.21 195.605 332.479 200.829C327.983 209.432 324.287 219.624 325.297 220.634C326.735 222.072 347.572 212.088 358.446 204.751C370.416 196.673 381.788 185.673 381.817 182.144C381.823 181.491 378.997 179.563 375.537 177.86C370.326 175.295 367.796 174.704 360.787 174.417C356.134 174.227 350.077 174.263 347.327 174.496ZM554.758 181.198C543.101 183.708 518.485 205.315 503.313 226.355C492.564 241.26 487.375 254.713 488.022 265.996C488.395 272.493 489.761 273.367 502.002 274.935C521.586 277.443 543.446 272.628 556.654 262.895C564.3 257.261 581.281 228.98 585.726 214.476C588.68 204.837 588.606 194.283 585.553 189.753C579.861 181.306 568.681 178.2 554.758 181.198ZM763.856 197.883C754.486 203.047 750.486 208.204 747.395 219.104C745.207 226.82 741.703 230.544 734.976 232.304C727.4 234.285 725.083 236.74 722.346 245.685L721.626 248.04L739.976 247.327C750.069 246.935 758.634 246.325 759.01 245.973C759.671 245.351 770.827 198.092 770.827 195.912C770.827 194.3 769.86 194.574 763.856 197.883ZM124.327 236.901C108.48 239.218 100.643 245.184 90.1217 262.938C84.8927 271.763 77.8267 286.324 77.8267 288.276C77.8267 289.677 84.8017 288.572 92.6787 285.924C105.462 281.628 139.779 265.694 146.686 260.849C153.064 256.375 157.294 251.178 158.783 245.985C159.604 243.123 159.429 242.676 156.997 241.419C149.253 237.414 134.637 235.393 124.327 236.901ZM371.827 379.537C366.561 381.462 364.206 387.934 366.924 393.012C367.851 394.745 367.56 395.482 365.039 397.785C358.733 403.544 360.323 410.851 368.513 413.747C372.068 415.004 373.105 414.97 377.76 413.448C381.648 412.176 383.348 412.019 384.338 412.84C385.071 413.449 387.749 413.808 390.289 413.639L394.907 413.331L392.046 409.915L389.186 406.498L392.615 401.415L396.045 396.331L392.227 396.008C389.056 395.74 388.084 396.131 386.493 398.315L384.577 400.945L382.229 398.739L379.881 396.533L382.854 393.147C387.529 387.823 386.577 381.985 380.699 379.936C377.347 378.768 374.306 378.631 371.827 379.537ZM193.911 382.029C193.413 383.295 190.071 390.969 186.486 399.081L179.967 413.831L184.696 413.831C189.193 413.831 189.487 413.659 190.691 410.331L191.956 406.831L199.314 406.831L206.672 406.831L207.827 410.331C208.919 413.64 209.227 413.831 213.472 413.831C218.746 413.831 219.019 415.879 211.001 395.255L205.199 380.331L200.008 380.029C195.379 379.759 194.719 379.975 193.911 382.029ZM229.827 396.74L229.827 413.831L233.827 413.831L237.827 413.831L237.827 406.831C237.827 401.455 238.156 399.831 239.245 399.831C242.551 399.831 244.203 401.483 246.894 407.48L249.743 413.831L254.285 413.831C256.783 413.831 258.827 413.619 258.827 413.36C258.827 412.083 253.554 401.187 252.227 399.72C250.854 398.204 250.955 397.794 253.267 395.482C256.651 392.098 256.712 386.973 253.415 383.137C251.099 380.441 250.587 380.318 240.415 379.99L229.827 379.649L229.827 396.74ZM267.827 382.831C267.827 385.801 267.883 385.831 273.327 385.831L278.827 385.831L278.827 399.831L278.827 413.831L283.327 413.831L287.827 413.831L287.827 399.831L287.827 385.831L293.827 385.831L299.827 385.831L299.827 382.831L299.827 379.831L283.827 379.831L267.827 379.831L267.827 382.831ZM311.827 396.831L311.827 413.831L323.827 413.831L335.827 413.831L335.827 410.831L335.827 407.831L328.327 407.831L320.827 407.831L320.827 403.331L320.827 398.831L327.827 398.831L334.827 398.831L334.827 395.831L334.827 392.831L327.827 392.831L320.827 392.831L320.827 389.331L320.827 385.831L327.827 385.831L334.827 385.831L334.827 382.831L334.827 379.831L323.327 379.831L311.827 379.831L311.827 396.831ZM421.827 396.831L421.827 413.831L426.327 413.831L430.827 413.831L430.827 407.46L430.827 401.089L435.867 400.42C442.612 399.525 445.691 397.995 447.402 394.686C450.079 389.509 448.223 383.244 443.355 381.026C441.913 380.369 436.479 379.831 431.28 379.831L421.827 379.831L421.827 396.831ZM462.827 396.831L462.827 413.831L466.827 413.831L470.827 413.831L470.827 396.831L470.827 379.831L466.827 379.831L462.827 379.831L462.827 396.831ZM486.827 396.831L486.827 413.831L490.793 413.831L494.759 413.831L495.043 403.137L495.327 392.442L504.827 403.114C513.186 412.503 514.718 413.788 517.577 413.808L520.827 413.831L520.827 396.831L520.827 379.831L516.827 379.831L512.827 379.831L512.827 389.331C512.827 394.556 512.49 398.795 512.077 398.751C511.664 398.708 507.564 394.433 502.965 389.251C495.114 380.406 494.366 379.831 490.715 379.831L486.827 379.831L486.827 396.831ZM533.827 382.831C533.827 385.801 533.883 385.831 539.327 385.831L544.827 385.831L544.827 399.831L544.827 413.831L549.327 413.831L553.827 413.831L553.827 399.831L553.827 385.831L559.827 385.831L565.827 385.831L565.827 382.831L565.827 379.831L549.827 379.831L533.827 379.831L533.827 382.831ZM577.829 391.581C577.83 405.135 579.134 408.996 584.819 412.28C589.258 414.845 597.98 414.943 602.621 412.481C608.631 409.294 609.819 405.928 609.823 392.081L609.827 379.831L605.827 379.831L601.827 379.831L601.827 389.682C601.827 395.1 601.344 400.917 600.754 402.609C598.648 408.651 590.135 408.79 587.121 402.831C586.35 401.307 585.851 396.33 585.842 390.081L585.827 379.831L581.827 379.831L577.827 379.831L577.829 391.581ZM625.827 396.74L625.827 413.831L629.827 413.831L633.827 413.831L633.827 406.831C633.827 401.455 634.156 399.831 635.245 399.831C638.551 399.831 640.203 401.483 642.894 407.48L645.743 413.831L650.285 413.831C652.783 413.831 654.827 413.619 654.827 413.36C654.827 412.083 649.554 401.187 648.227 399.72C646.854 398.204 646.955 397.794 649.267 395.482C652.651 392.098 652.712 386.973 649.415 383.137C647.099 380.441 646.587 380.318 636.415 379.99L625.827 379.649L625.827 396.74ZM670.28 395.942C666.456 404.804 663.177 412.454 662.994 412.942C662.81 413.431 664.639 413.831 667.058 413.831C671.1 413.831 671.592 413.547 673.126 410.331L674.795 406.831L681.862 406.831L688.929 406.831L690.391 410.331C691.749 413.581 692.169 413.831 696.265 413.831L700.676 413.831L696.66 403.581C694.45 397.943 691.507 390.293 690.119 386.581L687.595 379.831L682.414 379.831L677.232 379.831L670.28 395.942ZM373.174 386.368C372.85 387.214 373.382 388.787 374.358 389.865C376.516 392.25 378.827 390.876 378.827 387.209C378.827 385.331 378.294 384.831 376.296 384.831C374.903 384.831 373.499 385.523 373.174 386.368ZM237.827 389.774C237.827 393.716 237.923 393.831 241.205 393.831C245.115 393.831 247.119 391.92 246.654 388.636C246.38 386.702 245.643 386.281 242.077 386.024L237.827 385.716L237.827 389.774ZM430.827 389.831L430.827 393.952L434.476 393.641C436.602 393.46 438.582 392.601 439.221 391.581C440.909 388.885 438.777 386.386 434.476 386.021L430.827 385.71L430.827 389.831ZM633.827 389.774C633.827 393.716 633.923 393.831 637.205 393.831C641.115 393.831 643.119 391.92 642.654 388.636C642.38 386.702 641.643 386.281 638.077 386.024L633.827 385.716L633.827 389.774ZM197.059 394.653C195.832 397.819 194.827 400.73 194.827 401.12C194.827 401.511 196.852 401.831 199.327 401.831C202.633 401.831 203.827 401.438 203.827 400.351C203.827 398.754 200.921 390.79 199.909 389.613C199.569 389.219 198.287 391.486 197.059 394.653ZM680.921 391.081C680.45 392.318 679.336 395.073 678.446 397.203C677.555 399.333 676.827 401.245 676.827 401.453C676.827 401.661 679.125 401.831 681.934 401.831C685.599 401.831 686.911 401.478 686.58 400.581C686.326 399.894 685.342 396.969 684.392 394.081C683.443 391.193 682.466 388.831 682.222 388.831C681.977 388.831 681.392 389.844 680.921 391.081ZM370.394 402.089C367.696 406.207 370.904 409.893 375.827 408.331C378.6 407.451 378.328 405.685 374.916 402.417L372.006 399.628L370.394 402.089Z" fill="black"/>
</svg>
