<svg width="866" height="373" viewBox="0 0 866 373" fill="none" xmlns="http://www.w3.org/2000/svg">
<path fill-rule="evenodd" clip-rule="evenodd" d="M156.496 56.4631C126.543 61.3101 98.4992 70.5421 86.3093 79.5661C72.564 89.7441 82.8434 94.4521 102.074 86.7871C106.366 85.0761 112.903 82.5531 116.602 81.1801C124.2 78.3591 135.428 76.858 135.428 78.663C135.428 81.757 129.745 95.6461 117.579 122.287C103.445 153.233 101.586 158.628 97.4064 180.831C93.4958 201.6 94.3403 206.834 101.855 208.407C112.704 210.677 127.431 205.292 158.654 187.638C172.168 179.996 183.492 174.102 183.819 174.538C184.147 174.974 184.899 178.706 185.49 182.831C187.888 199.549 193.688 206.216 205.722 206.086C215.002 205.986 222.915 203.616 246.537 193.867C275 182.119 275.824 181.621 277.843 174.934L278.868 171.538L272.37 172.17C268.795 172.518 260.626 174.387 254.216 176.325C227.256 184.473 224.18 185.151 213.725 185.243C208.22 185.291 203.412 184.993 203.041 184.58C201.839 183.242 201.556 173.432 202.595 169.128C204.043 163.129 211.124 154.896 218.557 150.569C226.799 145.772 236.543 142.508 253.449 138.881C283.592 132.415 296.314 125.81 284.205 122.914C277.507 121.311 266.732 121.61 250.684 123.843C232.081 126.431 232.974 126.472 234.128 123.081C235.335 119.531 261.952 89.2171 267.159 85.4631C272.993 81.2571 279.647 79.0211 289.795 77.8601C294.748 77.2931 299.828 76.2671 301.082 75.5801C303.596 74.2041 306.204 70.5321 307.082 67.1361C307.575 65.2271 307.215 64.85 304.329 64.246C298.855 63.1 275.552 64.5411 264.526 66.7061C252.455 69.0761 239.737 73.0071 234.055 76.1241C229.057 78.8651 227.896 82.8891 230.14 89.6921C231.293 93.1871 231.383 94.7831 230.592 97.7301C229.332 102.42 209.169 134.1 204.219 139.166C197.722 145.814 197.751 145.819 194.306 137.501C191.063 129.673 188.643 127.008 180.702 122.523C171.897 117.548 171.983 118.153 178.824 109.403C190.388 94.6131 197.291 80.455 197.284 71.543C197.28 65.768 194.742 61.5751 189.531 58.7361C185.628 56.6091 183.859 56.3501 172.185 56.1971C165.036 56.1041 157.976 56.2231 156.496 56.4631ZM521.825 57.2451C518.76 58.4781 518.683 58.641 518.538 64.288C518.337 72.084 514.717 77.8371 502.26 90.1541C477.647 114.491 471.174 124.961 461.213 156.557L458.621 164.783L455.035 165.279C453.062 165.552 442.371 166.291 431.277 166.921C420.183 167.552 410.971 168.464 410.807 168.949C410.333 170.348 404.384 170.007 404.369 168.581C404.363 167.894 404.114 166.318 403.817 165.081C403.437 163.501 403.665 162.831 404.583 162.831C405.345 162.831 406.368 161.058 407.03 158.59C408.719 152.303 419.854 128.583 429.884 109.906C441.323 88.6041 443.967 82.0711 444.486 73.8311C444.963 66.2431 443.835 62.2471 440.775 60.6921C433.785 57.1391 422.283 75.4661 398.638 127.831C390.567 145.706 382.712 163.031 381.185 166.331C378.052 173.095 377.789 176.237 379.742 183.572C381.465 190.044 382.781 197.831 382.152 197.831C380.872 197.831 363.712 187.001 357.803 182.464C347.568 174.605 335.263 161.002 331.763 153.675L328.792 147.458L331.847 144.596C333.527 143.022 339.743 138.533 345.66 134.621C351.577 130.708 360.78 124.609 366.111 121.068C383.883 109.262 395.1 97.569 397.268 88.59C397.827 86.274 397.993 82.4771 397.648 79.9121C395.954 67.3061 378.438 58.7981 354.284 58.8491C340.15 58.8791 319.521 63.0171 312.067 67.3161C309.781 68.6351 309.662 69.0231 310.24 73.2741C311.018 78.9931 312.727 81.0971 318.836 83.8631C321.508 85.0731 323.696 86.2721 323.696 86.5271C323.696 86.7831 320.832 94.2681 317.333 103.161C308.113 126.595 306.268 131.923 298.917 156.331C291.833 179.852 290.502 186.943 292.276 191.718C293.283 194.428 293.579 194.585 295.959 193.66C301.089 191.665 305.862 183.436 309.781 169.831C310.652 166.806 311.719 163.903 312.153 163.379C312.632 162.801 317.256 167.36 323.922 174.982C329.961 181.888 336.919 189.331 339.385 191.523C361.048 210.786 406.785 236.55 424.329 239.373C427.948 239.955 428.588 239.809 428.588 238.395C428.588 232.86 423.557 227.507 407.968 216.45C392.889 205.756 391.12 204.232 392.279 202.939C392.772 202.389 396.912 199.869 401.48 197.339C415.315 189.675 432.258 184.227 453.98 180.457L461.889 179.085L464.169 184.456C468.808 195.383 475.704 198.575 492.487 197.563C511.035 196.445 539.431 187.718 548.942 180.211C553.005 177.004 553.899 175.48 556.785 166.831C558.839 160.677 560.934 157.122 561.883 158.18C562.229 158.566 562.513 161.027 562.513 163.649C562.513 167.418 561.618 170.29 558.24 177.373C553.453 187.411 550.513 196.296 550.513 200.73C550.513 203.5 550.675 203.639 553.031 202.886C560.332 200.551 565.277 195.242 574.509 179.831C577.969 174.056 582.155 167.798 583.811 165.925C588.341 160.799 596.66 156.941 609.012 154.237C631.011 149.422 634.226 147.532 633.721 139.711C633.449 135.494 633.326 135.331 629.854 134.607C627.882 134.196 621.295 134.134 615.217 134.47L604.165 135.08L606.863 129.117C610.615 120.827 622.181 103.719 629.794 95.1971C635.602 88.6971 636.804 87.8391 643.321 85.5491C647.256 84.1671 654.71 82.2911 659.888 81.3801C672.85 79.1011 681.115 76.925 682.159 75.517C682.641 74.864 683.301 72.7501 683.625 70.8181C684.112 67.9101 683.843 66.9171 682.063 65.0521C679.92 62.8061 679.858 62.802 664.745 63.84C631.189 66.145 606.429 71.082 594.371 77.871C589.314 80.718 589.063 81.037 589.069 84.595C589.078 91.652 590.659 95.6721 594.261 97.7971C596.086 98.8731 598.13 100.166 598.802 100.671C599.757 101.388 598.276 104.508 592.019 114.96C587.616 122.314 582.738 130.605 581.179 133.385C579.436 136.492 576.903 139.342 574.602 140.784L570.861 143.129L571.429 139.167C571.742 136.988 574.23 129.307 576.959 122.099C579.689 114.89 582.364 106.543 582.902 103.548C585.018 91.797 579.143 81.203 564.536 70.431C551.366 60.718 545.641 58.0661 535.289 56.8811C524.674 55.6661 525.83 55.6351 521.825 57.2451ZM733.688 69.2141C731.493 70.0141 727.307 73.2181 723.578 76.9551C720.079 80.4621 715.389 84.51 713.155 85.952C710.921 87.393 707.183 91.218 704.849 94.452C702.514 97.685 695.376 105.439 688.987 111.681C682.597 117.924 671.464 129.487 664.247 137.377C649.779 153.194 646.441 155.981 642.91 155.194C639.523 154.438 636.201 158.327 634.43 165.121C632.651 171.949 629.102 176.194 613.077 190.669C601.221 201.379 595.746 208.309 594.749 213.871L594.163 217.136L597.888 216.472C608.31 214.613 615.508 210.133 632.677 194.821C647.054 181.998 653.911 177.831 662.348 176.793C665.679 176.383 670.22 175.254 672.439 174.284C675.716 172.851 679.084 172.536 690.369 172.605C698.012 172.651 706.988 172.992 710.316 173.362L716.368 174.034L716.349 181.682C716.339 185.889 715.532 194.731 714.557 201.331C711.504 221.975 712.302 227.434 718.93 231.258L721.334 232.644L727.82 207.488C732.197 190.513 734.305 180.624 734.303 177.081C734.298 172.025 734.389 171.83 736.763 171.808C748.745 171.699 779.291 168.78 782.088 167.477C785.708 165.789 786.043 164.484 784.151 159.434C782.545 155.147 779.654 154.015 767.021 152.729C756.121 151.618 752.611 150.878 740.668 147.171C738.888 146.618 739.981 133.593 742.436 126.096C743.474 122.925 745.735 116.056 747.461 110.831C755.709 85.8481 755.79 85.5301 755.803 78.1201L755.814 70.9081L752.452 69.9111C746.318 68.0911 737.654 67.7701 733.688 69.2141ZM165.053 74.9721C163.846 77.3701 159.568 85.1831 155.546 92.3361C148.137 105.51 144.276 113.366 143.06 117.737C142.41 120.073 142.569 120.035 148.547 116.398C165.07 106.347 180.062 89.4501 183.325 77.2011C183.801 75.4171 183.307 74.8101 180.282 73.4601C178.297 72.5741 174.551 71.5711 171.959 71.2311L167.246 70.6131L165.053 74.9721ZM349.246 76.496L344.764 76.9211L342.574 85.1261C341.371 89.6391 338.383 97.6051 335.935 102.829C331.904 111.432 328.591 121.624 329.496 122.634C330.785 124.072 349.466 114.088 359.215 106.751C369.946 98.6731 380.141 87.6731 380.167 84.1441C380.172 83.4911 377.639 81.5631 374.537 79.8601C369.865 77.2951 367.597 76.7041 361.313 76.4171C357.142 76.2271 351.712 76.263 349.246 76.496ZM535.211 83.1981C524.76 85.7081 502.691 107.315 489.09 128.355C479.453 143.26 474.801 156.713 475.381 167.996C475.715 174.493 476.94 175.367 487.914 176.935C505.472 179.443 525.069 174.628 536.91 164.895C543.765 159.261 558.989 130.98 562.974 116.476C565.622 106.837 565.556 96.2831 562.819 91.7531C557.716 83.3061 547.693 80.2001 535.211 83.1981ZM722.669 99.8831C714.269 105.047 710.683 110.204 707.912 121.104C705.95 128.82 702.809 132.544 696.778 134.304C689.986 136.285 687.909 138.74 685.455 147.685L684.81 150.04L701.261 149.327C710.309 148.935 717.988 148.325 718.325 147.973C718.918 147.351 728.919 100.092 728.919 97.9121C728.919 96.3001 728.052 96.5741 722.669 99.8831ZM149.324 138.901C135.117 141.218 128.091 147.184 118.659 164.938C113.971 173.763 107.636 188.324 107.636 190.276C107.636 191.677 113.89 190.572 120.951 187.924C132.412 183.628 163.177 167.694 169.369 162.849C175.087 158.375 178.88 153.178 180.214 147.985C180.95 145.123 180.794 144.676 178.613 143.419C171.671 139.414 158.567 137.393 149.324 138.901ZM371.211 281.537C366.49 283.462 364.379 289.934 366.815 295.012C367.646 296.745 367.385 297.482 365.125 299.785C359.472 305.544 360.897 312.851 368.24 315.747C371.427 317.004 372.357 316.97 376.53 315.448C380.016 314.176 381.54 314.019 382.427 314.84C383.084 315.449 385.485 315.808 387.762 315.639L391.902 315.331L389.337 311.915L386.773 308.498L389.848 303.415L392.923 298.331L389.5 298.008C386.657 297.74 385.785 298.131 384.359 300.315L382.641 302.945L380.536 300.739L378.431 298.533L381.097 295.147C385.288 289.823 384.434 283.985 379.165 281.936C376.16 280.768 373.433 280.631 371.211 281.537ZM211.707 284.029C211.261 285.295 208.265 292.969 205.051 301.081L199.206 315.831L203.446 315.831C207.477 315.831 207.741 315.659 208.82 312.331L209.954 308.831L216.551 308.831L223.147 308.831L224.183 312.331C225.162 315.64 225.438 315.831 229.244 315.831C233.972 315.831 234.217 317.879 227.029 297.255L221.827 282.331L217.173 282.029C213.023 281.759 212.431 281.975 211.707 284.029ZM243.906 298.74L243.906 315.831L247.492 315.831L251.078 315.831L251.078 308.831C251.078 303.455 251.373 301.831 252.35 301.831C255.313 301.831 256.794 303.483 259.207 309.48L261.761 315.831L265.833 315.831C268.073 315.831 269.905 315.619 269.905 315.36C269.905 314.083 265.178 303.187 263.988 301.72C262.757 300.204 262.848 299.794 264.92 297.482C267.954 294.098 268.009 288.973 265.053 285.137C262.977 282.441 262.518 282.318 253.399 281.99L243.906 281.649L243.906 298.74ZM277.974 284.831C277.974 287.801 278.024 287.831 282.904 287.831L287.835 287.831L287.835 301.831L287.835 315.831L291.87 315.831L295.904 315.831L295.904 301.831L295.904 287.831L301.283 287.831L306.662 287.831L306.662 284.831L306.662 281.831L292.318 281.831L277.974 281.831L277.974 284.831ZM317.42 298.831L317.42 315.831L328.178 315.831L338.936 315.831L338.936 312.831L338.936 309.831L332.213 309.831L325.489 309.831L325.489 305.331L325.489 300.831L331.764 300.831L338.04 300.831L338.04 297.831L338.04 294.831L331.764 294.831L325.489 294.831L325.489 291.331L325.489 287.831L331.764 287.831L338.04 287.831L338.04 284.831L338.04 281.831L327.73 281.831L317.42 281.831L317.42 298.831ZM416.036 298.831L416.036 315.831L420.071 315.831L424.105 315.831L424.105 309.46L424.105 303.089L428.623 302.42C434.67 301.525 437.431 299.995 438.965 296.686C441.365 291.509 439.701 285.244 435.337 283.026C434.044 282.369 429.172 281.831 424.511 281.831L416.036 281.831L416.036 298.831ZM452.793 298.831L452.793 315.831L456.379 315.831L459.966 315.831L459.966 298.831L459.966 281.831L456.379 281.831L452.793 281.831L452.793 298.831ZM474.31 298.831L474.31 315.831L477.865 315.831L481.421 315.831L481.675 305.137L481.93 294.442L490.447 305.114C497.941 314.503 499.314 315.788 501.877 315.808L504.791 315.831L504.791 298.831L504.791 281.831L501.205 281.831L497.619 281.831L497.619 291.331C497.619 296.556 497.317 300.795 496.947 300.751C496.576 300.708 492.901 296.433 488.778 291.251C481.739 282.406 481.069 281.831 477.795 281.831L474.31 281.831L474.31 298.831ZM516.446 284.831C516.446 287.801 516.496 287.831 521.377 287.831L526.307 287.831L526.307 301.831L526.307 315.831L530.342 315.831L534.376 315.831L534.376 301.831L534.376 287.831L539.755 287.831L545.134 287.831L545.134 284.831L545.134 281.831L530.79 281.831L516.446 281.831L516.446 284.831ZM555.894 293.581C555.895 307.135 557.064 310.996 562.161 314.28C566.14 316.845 573.96 316.943 578.12 314.481C583.508 311.294 584.573 307.928 584.577 294.081L584.581 281.831L580.995 281.831L577.409 281.831L577.409 291.682C577.409 297.1 576.976 302.917 576.447 304.609C574.559 310.651 566.927 310.79 564.224 304.831C563.533 303.307 563.086 298.33 563.078 292.081L563.064 281.831L559.478 281.831L555.892 281.831L555.894 293.581ZM598.925 298.74L598.925 315.831L602.511 315.831L606.097 315.831L606.097 308.831C606.097 303.455 606.392 301.831 607.368 301.831C610.332 301.831 611.813 303.483 614.226 309.48L616.78 315.831L620.852 315.831C623.091 315.831 624.924 315.619 624.924 315.36C624.924 314.083 620.196 303.187 619.007 301.72C617.776 300.204 617.866 299.794 619.939 297.482C622.973 294.098 623.028 288.973 620.072 285.137C617.995 282.441 617.536 282.318 608.417 281.99L598.925 281.649L598.925 298.74ZM638.777 297.942C635.349 306.804 632.41 314.454 632.245 314.942C632.081 315.431 633.72 315.831 635.889 315.831C639.513 315.831 639.954 315.547 641.329 312.331L642.825 308.831L649.161 308.831L655.497 308.831L656.807 312.331C658.025 315.581 658.401 315.831 662.073 315.831L666.028 315.831L662.427 305.581C660.446 299.943 657.808 292.293 656.563 288.581L654.301 281.831L649.656 281.831L645.01 281.831L638.777 297.942ZM372.418 288.368C372.128 289.214 372.605 290.787 373.48 291.865C375.415 294.25 377.486 292.876 377.486 289.209C377.486 287.331 377.009 286.831 375.217 286.831C373.969 286.831 372.71 287.523 372.418 288.368ZM251.078 291.774C251.078 295.716 251.164 295.831 254.107 295.831C257.612 295.831 259.409 293.92 258.992 290.636C258.746 288.702 258.085 288.281 254.888 288.024L251.078 287.716L251.078 291.774ZM424.105 291.831L424.105 295.952L427.376 295.641C429.282 295.46 431.057 294.601 431.63 293.581C433.144 290.885 431.232 288.386 427.376 288.021L424.105 287.71L424.105 291.831ZM606.097 291.774C606.097 295.716 606.183 295.831 609.125 295.831C612.631 295.831 614.427 293.92 614.01 290.636C613.765 288.702 613.104 288.281 609.907 288.024L606.097 287.716L606.097 291.774ZM214.529 296.653C213.429 299.819 212.528 302.73 212.528 303.12C212.528 303.511 214.344 303.831 216.563 303.831C219.526 303.831 220.597 303.438 220.597 302.351C220.597 300.754 217.992 292.79 217.084 291.613C216.78 291.219 215.63 293.486 214.529 296.653ZM648.317 293.081C647.895 294.318 646.896 297.073 646.098 299.203C645.3 301.333 644.647 303.245 644.647 303.453C644.647 303.661 646.707 303.831 649.225 303.831C652.511 303.831 653.687 303.478 653.391 302.581C653.163 301.894 652.281 298.969 651.429 296.081C650.578 293.193 649.702 290.831 649.484 290.831C649.264 290.831 648.739 291.844 648.317 293.081ZM369.926 304.089C367.507 308.207 370.383 311.893 374.797 310.331C377.283 309.451 377.039 307.685 373.98 304.417L371.371 301.628L369.926 304.089Z" fill="#161614"/>
</svg>
