<svg width="787" height="691" viewBox="0 0 787 691" fill="none" xmlns="http://www.w3.org/2000/svg">
<path fillRule="evenodd" clipRule="evenodd" d="M413.239 2.00113C406.318 6.21013 402.28 13.7991 392.322 41.3131C384.914 61.7801 382.549 67.5431 381.218 68.3651C380.284 68.9421 373.695 62.2831 363.102 50.0571C354.105 39.6731 349.398 38.8671 342.049 46.4491C337.435 51.2101 336.674 58.9341 337.313 94.5001C337.864 125.123 338.206 127.486 342.783 132.283C346.967 136.669 351.836 139.121 384.671 153.374C429.938 173.025 441.817 177.25 455.363 178.519L462.879 179.224L464.414 173.862C467.474 163.168 470.785 138.747 472.99 110.605C474.103 96.3911 474.346 71.0661 473.393 68.5821C472.591 66.4931 465.212 66.4671 460.261 68.5351C458.207 69.3941 452.97 73.8531 448.388 78.6461L440.191 87.2211L438.695 84.8601C436.705 81.7221 435.503 75.5831 433.025 55.9211C428.639 21.1131 425.04 7.87113 418.312 1.78313C416.519 0.160128 416.247 0.17213 413.239 2.00113ZM408.136 41.2501C406.505 44.6881 402.848 54.2191 400.008 62.4311C394.177 79.2981 390.367 87.4121 386.656 90.8721C382.043 95.1721 378.757 92.9521 361.483 73.8641C358.724 70.8151 355.462 67.7821 354.233 67.1251L352 65.9301L352.081 81.2151C352.126 89.6221 352.479 102.004 352.866 108.732C353.468 119.21 353.85 121.183 355.534 122.491C358.958 125.15 384.839 137.578 403.207 145.383C424.877 154.591 450.783 163.633 451.96 162.398C452.92 161.389 457.027 110.303 457.011 99.5761L457 92.6511L454.394 95.0761C452.96 96.4091 450.42 99.5251 448.749 102C442.49 111.269 436.714 116 431.658 116C427.271 116 424.723 106.302 420.462 73.3741C416.944 46.1911 414.498 35.0001 412.076 35.0001C411.54 35.0001 409.768 37.8131 408.136 41.2501ZM333.741 157.25C332.839 157.938 330.883 162.1 329.396 166.5C326.948 173.741 326.686 175.923 326.634 189.5C326.546 212.441 327.702 215.12 343.444 228.435C355.26 238.43 358.728 252.275 359.619 293C360.097 314.829 359.804 323.228 357.589 351.347C354.4 391.808 354.283 401.311 356.919 405.634C360.936 412.222 372.689 418.58 382.803 419.637C394.54 420.864 402.644 416.497 407.686 406.23L410.5 400.5L410 363C409.05 291.758 409.336 270.204 411.315 263.709C413.892 255.254 418.183 251.024 428.14 247.127C437.48 243.471 442.597 240.035 447.085 234.405C453.956 225.787 457.852 213.877 456.022 207.082C453.767 198.706 447.69 194.607 425.5 186.495C418.35 183.881 403.05 177.585 391.5 172.504C367.694 162.032 357.563 158.47 347.5 157.037C338.228 155.716 335.704 155.755 333.741 157.25ZM342.63 172.789C341.57 174.505 339.88 198.81 340.483 203.671C341.21 209.532 343.613 212.729 349.624 215.831C358.153 220.231 364.473 229.711 367.956 243.326C371.867 258.621 372.5 266.511 372.5 300C372.5 328.861 372.227 334.515 370.061 350.5C368.357 363.084 367.604 373.413 367.561 384.828L367.5 401.156L370.697 404.016C378.876 411.335 393.357 410.09 397.326 401.726C399.626 396.879 399.635 360.137 397.343 334.81C396.412 324.523 395.645 305.985 395.593 292.5C395.501 268.783 395.533 268.403 398.275 260.308C402.388 248.166 406.85 243.055 417.751 237.995C436.657 229.22 439.121 227.163 440.5 218.998C441.837 211.085 440.886 209.734 430.369 204.616C411.408 195.387 350.175 172 344.974 172C343.953 172 342.899 172.355 342.63 172.789ZM378.479 370.321C372.701 376.099 372.841 385.433 378.807 392.11L381.508 395.133L385.004 392.796C389.327 389.907 391.996 384.795 391.998 379.399C392.003 367.831 385.401 363.399 378.479 370.321ZM73.965 432.429C37.517 439.315 11.882 448.336 3.14496 457.351C-0.70304 461.32 -0.257029 463.542 4.56897 464.447C9.45797 465.364 13.367 464.507 32.281 458.366C41.819 455.27 51.919 452.652 55.68 452.301L62.296 451.683L61.609 454.423C60.441 459.074 52.374 476.319 39.963 500.696C27.224 525.717 23.694 535.147 19.592 555.115C15.567 574.705 16.238 580.138 22.909 581.991C35.056 585.366 48.181 581.266 88.948 561.362C102.944 554.529 114.919 549.139 115.558 549.384C116.197 549.629 117.016 552.065 117.379 554.796C118.489 563.169 120.934 569.855 124.277 573.663C133.152 583.77 147.041 582.424 187.427 567.541C215.833 557.073 218.267 555.688 221.03 548.421L222.062 545.707L215.274 546.338C211.541 546.685 198.589 549.522 186.493 552.642C166.235 557.868 163.421 558.351 150.828 558.769L137.156 559.223L136.465 554.618C134.729 543.041 140.554 532.965 153.21 525.652C160.534 521.421 174.082 517.266 194.67 512.939C220.185 507.576 233 503.254 233 500.012C233 495.914 215.925 495.059 191.098 497.914C180.977 499.078 172.467 499.8 172.186 499.519C170.836 498.169 175.183 492.836 190.065 477.587C210.877 456.262 211.796 455.774 239.99 451.107C247.404 449.879 250.854 447.723 252.719 443.153C253.959 440.114 253.897 439.911 251.446 438.98C248.082 437.701 232.463 437.729 220.211 439.036C198.3 441.374 173.304 447.919 169.068 452.428C166.57 455.086 166.144 459.859 167.882 465.707C169.538 471.278 168.448 473.484 154.21 493.368C144.984 506.251 134.583 518 132.402 518C131.65 518 129.885 515.734 128.482 512.964C124.721 505.542 119.601 500.425 111.872 496.364C108.093 494.377 105 492.194 105 491.512C105 490.83 106.462 488.444 108.25 486.211C126.74 463.113 131.791 453.712 130.737 444.358C130.156 439.201 127.472 435.824 121.5 432.738C118.059 430.96 115.334 430.628 102 430.366C89.007 430.11 84.472 430.444 73.965 432.429ZM495 430.706C491.178 431.448 490.157 432.754 489.426 437.832C488.141 446.755 486.504 448.944 466.118 469C441.076 493.635 437.327 499.078 427.544 525C424.95 531.875 422.483 537.86 422.063 538.3C421.643 538.74 410.995 539.747 398.4 540.537C385.805 541.327 372.889 542.496 369.698 543.134C366.277 543.819 363.542 543.927 363.034 543.398C361.63 541.934 361.415 538.412 362.639 536.904C363.265 536.132 365.173 532.2 366.879 528.167C370.55 519.49 380.099 501.806 393.428 479C406.254 457.055 409.549 445.829 405.474 437.95C404.255 435.592 403.301 435.007 400.724 435.036C391.637 435.137 379.885 453.42 347.633 517.632C338.83 535.156 333.007 547.907 333.017 549.632C333.027 551.209 333.919 555.875 335 560C336.081 564.125 336.973 568.52 336.983 569.767L337 572.034L331.75 569.374C308.908 557.804 287.814 540.261 280.429 526.693L277.706 521.689L281.103 518.89C282.971 517.351 293.99 510.416 305.588 503.48C330.5 488.581 342.573 479.781 348.552 472.163C357.043 461.344 356.355 449.935 346.771 442.645C332.433 431.74 294.62 430.079 265.495 439.074C256.947 441.714 255.945 442.809 257.152 448.182C258.354 453.532 259.099 454.398 264.831 457.107C272.425 460.698 272.348 459.844 266.331 473.794C252.637 505.543 237.609 547.964 236.394 558.301C235.318 567.459 238.834 570.535 244.719 565.583C248.164 562.684 252.471 555.018 255.957 545.581C257.363 541.776 259.046 538.485 259.698 538.267C260.35 538.05 267.775 544.562 276.199 552.739C287.468 563.679 294.55 569.606 303.007 575.176C331.18 593.73 367.983 611.059 384.25 613.43C388.237 614.011 389 613.864 389 612.512C389 607.206 384.033 602.592 364.484 589.735C357.325 585.027 350.64 580.26 349.629 579.142C347.806 577.128 347.891 577.06 359.145 571.622C372.541 565.148 388.623 560.095 407.086 556.558C426.123 552.911 426.15 552.914 429.042 559.091C430.354 561.891 432.702 565.254 434.261 566.566C442.952 573.879 462.644 573.699 493 566.028C506.171 562.699 517.431 558.359 523.114 554.421C525.948 552.457 527.88 549.862 530.053 545.1C534.663 535 535.401 533.693 536.75 533.247C537.632 532.955 538 534.223 538 537.551C538 541.097 536.858 544.657 533.401 551.884C522.077 575.558 522.436 581.904 534.637 573.75C539.191 570.707 542.442 566.796 556.5 547.449C565.229 535.436 570.361 532.814 596.298 527.116C614.879 523.034 618 521.175 618 514.188C618 509.102 616.383 508.623 599.91 508.823L584.957 509.005L587.122 504.753C591.83 495.505 603.749 479.363 613.399 469.166C620.496 461.665 626.579 459.428 653.192 454.53C660.722 453.144 668.033 451.486 669.439 450.846C672.908 449.265 674.556 443.497 672.454 440.29C671.051 438.148 670.291 438.001 660.727 438.016C622.257 438.075 573.458 447.669 568.97 456.055C567.576 458.662 568.357 466.521 570.237 468.785C570.915 469.603 573.165 471.341 575.235 472.649C577.306 473.956 579 475.506 579 476.093C579 477.571 559.349 507.845 556.122 511.339C554.68 512.901 552.263 514.825 550.75 515.615C548.153 516.971 548 516.93 548 514.881C548 513.687 550.925 505.399 554.5 496.463C560.299 481.967 560.999 479.476 560.991 473.358C560.983 467.606 560.506 465.672 558.037 461.367C552.076 450.974 530.344 435.994 516.235 432.552C509.659 430.948 498.673 429.993 495 430.706ZM726 445.132C724.075 446.301 720.025 449.372 717 451.955C713.975 454.539 709.383 458.089 706.795 459.844C704.208 461.598 700.173 465.308 697.829 468.088C695.485 470.868 687.477 478.664 680.033 485.413C672.59 492.161 659.991 503.895 652.036 511.486C636.14 526.656 632.992 528.991 628.424 528.996C624.477 529.001 621.943 531.721 618.174 540C615.101 546.749 609.017 553.339 596.5 563.476C582.329 574.953 574 584.619 574 589.588C574 590.973 574.677 591.147 577.99 590.618C588.507 588.936 598.587 583.21 618.494 567.608C632.156 556.9 640.36 552.502 649.511 550.978C653.355 550.339 658.719 549.182 661.432 548.408C666.681 546.909 690.776 546.474 703.25 547.652L710 548.289V554.01C710 557.156 709.1 566.377 708 574.5C705.607 592.174 705.527 596.185 707.494 599.989C709.043 602.985 712.601 606 714.586 606C716.531 606 729.973 557.762 729.991 550.719C729.996 548.582 730.544 546.762 731.25 546.535C731.938 546.314 740.825 545.626 751 545.007C782.647 543.081 787.899 541.754 786.483 536.044C785.683 532.82 782.458 529.332 779.619 528.619C778.413 528.317 771.442 527.37 764.128 526.515C749.892 524.851 739.377 522.468 737.087 520.387C734.459 517.998 737.245 504.995 744.598 485.337C752.803 463.4 753.973 459.158 753.988 451.297L754 445.094L750.25 444.053C748.188 443.48 742.675 443.01 738 443.009C731.096 443.008 728.843 443.406 726 445.132ZM85.275 465.206C72.673 486.125 69.151 493 71.036 493C72.716 493 77.881 490.122 86 484.662C100.492 474.917 115.709 457.006 114.818 450.74C114.461 448.227 110.737 446.666 102.5 445.574L97.5 444.912L85.275 465.206ZM295.504 452.25C292.534 460.812 288.251 471.533 284.217 480.5C281.495 486.55 278.96 492.792 278.584 494.371C277.932 497.111 278.029 497.21 280.701 496.556C285.575 495.361 303.392 486.201 312.106 480.409C320.519 474.817 329.386 466.945 333.184 461.696C335.117 459.024 335.131 458.802 333.47 456.967C329.783 452.893 321.84 451 308.431 451C299.334 451 295.819 451.34 295.504 452.25ZM510.827 456.991C501.152 458.234 488.765 467.139 470.884 485.706C453.121 504.151 442.817 522.358 441.378 537.844C440.771 544.379 440.887 544.978 443.225 547.316C445.155 549.246 447.28 549.998 452.61 550.636C477.377 553.603 500.968 547.73 512.823 535.645C518.761 529.591 527.421 516.127 533.498 503.5C546.247 477.01 542.585 460.119 523.411 456.98C520.16 456.447 517.275 456.068 517 456.137C516.725 456.206 513.947 456.59 510.827 456.991ZM716.07 474.75C708.454 479.224 704.973 483.696 701.265 493.772C697.942 502.798 694.858 506.38 688.939 508.085C681.201 510.313 678.012 513.566 675.544 521.75C674.886 523.931 675.074 523.999 681.683 523.976C688.931 523.951 712.025 522.326 712.499 521.808C712.888 521.383 724 473.275 724 472.016C724 470.379 722.819 470.786 716.07 474.75ZM70 514.882C59.098 518.4 54.185 522.44 46.357 534.321C40.772 542.799 30.434 563.767 31.375 564.708C33.679 567.012 56.65 558.561 83.531 545.522C98.558 538.232 101.166 536.599 105.7 531.638C111.854 524.905 113.279 520.454 110.105 517.884C104.387 513.254 80.571 511.471 70 514.882ZM324.357 655.946C319.774 657.893 317.583 664.483 320.01 669.019C320.823 670.537 320.392 671.623 317.81 674.563C309.739 683.756 318.172 693.445 330.976 689.692C333.809 688.861 336.378 688.624 337.161 689.12C337.897 689.587 340.691 689.976 343.369 689.985L348.237 690L345.619 686.567C344.178 684.678 343 682.758 343 682.299C343 681.84 344.147 679.777 345.548 677.714C346.95 675.652 347.823 673.523 347.489 672.982C346.367 671.166 342.368 671.979 339.995 674.506L337.641 677.011L335.348 674.857L333.054 672.702L336.027 669.316C339.63 665.213 339.888 661.183 336.739 658.224C334.167 655.809 327.549 654.591 324.357 655.946ZM146.66 659.199C145.885 661.015 142.719 668.272 139.625 675.328C136.531 682.383 134 688.57 134 689.078C134 689.585 135.807 690 138.016 690C141.622 690 142.203 689.642 143.701 686.5L145.37 683H152.5H159.63L161.299 686.5C162.739 689.52 163.45 690 166.484 690C169.188 690 170 689.589 170 688.22C170 687.242 167.401 679.704 164.224 671.47L158.449 656.5L153.259 656.199C148.231 655.907 148.026 656.001 146.66 659.199ZM183 672.887V690H187H191V683.469C191 678.561 191.376 676.793 192.513 676.357C194.724 675.508 196.792 677.644 200.096 684.19C203.024 689.99 203.037 690 207.582 690C211.838 690 212.09 689.854 211.454 687.75C211.079 686.513 209.424 682.935 207.774 679.8L204.775 674.1L206.887 670.682C209.643 666.223 209.559 662.762 206.612 659.335C204.33 656.683 203.751 656.541 193.612 656.166L183 655.773V672.887ZM221 659C221 661.97 221.056 662 226.5 662H232V676V690H236.5H241V676V662H247H253V659V656H237H221V659ZM265 673V690H277H289V687V684H281.5H274V679.5V675H281H288V672V669H281H274V665.5V662H281H288V659V656H276.5H265V673ZM375 672.909V690H379.5H384V683.615V677.23L389.575 676.534C397.242 675.576 401.455 671.877 401.455 666.102C401.455 662.962 400.81 661.355 398.707 659.25C396.115 656.656 395.363 656.481 385.48 656.159L375 655.818V672.909ZM416 673V690H420H424V673V656H420H416V673ZM440 673V690H444H448L448.118 682.75C448.183 678.763 448.521 674.243 448.868 672.706C449.487 669.97 449.694 670.121 458.82 679.956C466.54 688.276 468.642 690 471.07 690H474V673V656H470H466V665C466 669.95 465.61 674 465.134 674C464.658 674 460.468 669.95 455.823 665C448.147 656.82 447.041 656 443.689 656H440V673ZM487 659C487 661.97 487.056 662 492.5 662H498V676V690H502.5H507V676V662H513H519V659V656H503H487V659ZM531.056 667.25C531.123 680.547 532.284 684.613 536.898 687.715C539.596 689.53 541.676 690 547 690C552.324 690 554.404 689.53 557.102 687.715C561.716 684.613 562.877 680.547 562.944 667.25L563 656H559.139H555.279L554.77 667.527C554.195 680.564 553.056 683 547.536 683C541.012 683 539.066 678.714 539.024 664.25L539 656H535H531L531.056 667.25ZM579 672.887V690H583H587V683.469C587 678.561 587.376 676.793 588.513 676.357C590.724 675.508 592.792 677.644 596.096 684.19C599.024 689.99 599.037 690 603.582 690C607.838 690 608.09 689.854 607.454 687.75C607.079 686.513 605.424 682.935 603.774 679.8L600.775 674.1L602.887 670.682C605.643 666.223 605.559 662.762 602.612 659.335C600.33 656.683 599.751 656.541 589.612 656.166L579 655.773V672.887ZM624.69 669.25C621.589 676.538 618.359 684.188 617.512 686.25L615.973 690H620.02C623.586 690 624.313 689.583 626.133 686.5C628.175 683.039 628.274 683 635.085 683H641.973L643.436 686.5C644.797 689.758 645.206 690 649.357 690H653.815L648.301 675.75C645.268 667.913 642.341 660.263 641.796 658.75C640.886 656.226 640.374 656 635.567 656H630.329L624.69 669.25ZM326.696 662.35C325.862 664.524 328.388 667.449 330.426 666.667C332.878 665.726 332.084 661.583 329.377 661.197C328.21 661.031 327.003 661.549 326.696 662.35ZM191 665.531C191 669.593 192.831 670.797 196.857 669.381C202.125 667.529 200.268 662 194.378 662C191.178 662 191 662.187 191 665.531ZM384 666V670.262L387.669 669.666C390.854 669.149 392.969 667.686 392.969 666C392.969 664.314 390.854 662.851 387.669 662.334L384 661.738V666ZM587 665.531C587 669.593 588.831 670.797 592.857 669.381C598.125 667.529 596.268 662 590.378 662C587.178 662 587 662.187 587 665.531ZM634.11 667.613C633.375 669.201 632.169 672.188 631.431 674.25L630.089 678H634.675H639.262L638.733 674.744C638.443 672.953 637.584 669.967 636.825 668.107L635.446 664.726L634.11 667.613ZM150.143 671.111C148.975 673.922 148.266 676.622 148.568 677.111C149.479 678.584 156.006 678.147 156.61 676.573C157.111 675.269 153.673 666 152.69 666C152.457 666 151.311 668.3 150.143 671.111ZM324.25 677.144C322.58 678.822 322.663 682.476 324.404 683.921C325.909 685.17 331 684.388 331 682.907C331 682.426 329.763 680.649 328.25 678.96C326.045 676.498 325.252 676.138 324.25 677.144Z" fill="#1E1E1E"/>
</svg>
