<svg width="150" height="421" viewBox="0 0 150 421" fill="none" xmlns="http://www.w3.org/2000/svg">
<path fill-rule="evenodd" clip-rule="evenodd" d="M87.111 2.10496C80.404 6.40296 75.0871 16.399 66.8991 40.105C59.9851 60.122 56.6729 68.105 55.2809 68.105C53.7499 68.105 47.2351 61.257 41.4001 53.516C35.0501 45.093 30.2941 41.105 26.5951 41.105C20.1201 41.105 14.045 46.447 12.184 53.777C10.755 59.403 11.279 119.329 12.81 125.368C14.798 133.215 20.5931 137.472 40.7421 145.886C45.9321 148.053 59.8731 154.134 71.7211 159.4C83.5691 164.666 99.5441 171.089 107.221 173.675C119.206 177.711 122.378 178.392 129.66 178.491L138.142 178.605L139.389 174.842C144.527 159.337 151.409 86.15 149.049 72.105L148.125 66.605L142.642 66.705C134.275 66.858 129.31 70.174 118.987 82.505L114.885 87.4049L113.396 84.505C111.33 80.481 109.951 73.019 108.146 56.105C105.135 27.887 101.33 12.065 95.6801 4.26496C92.2721 -0.440038 91.418 -0.655042 87.111 2.10496ZM82.4059 42.855C80.4319 47.117 77.169 56.005 75.154 62.605C70.702 77.188 65.875 87.609 61.747 91.55L58.662 94.495L54.3 92.376C51.839 91.181 47.811 87.739 45.058 84.482C37.958 76.078 29.153 67.105 28.006 67.105C27.362 67.105 27.1701 76.34 27.4611 93.355C27.8441 115.796 28.1471 119.875 29.5441 121.469C31.7681 124.004 61.6611 138.597 80.8261 146.503C99.1031 154.043 125.718 163.4 126.542 162.575C127.144 161.973 131.515 106.119 131.619 97.7L131.679 92.795L129.536 94.7C128.358 95.748 125.492 99.53 123.169 103.105C120.845 106.68 117.866 110.596 116.548 111.807C114.018 114.132 107.718 117.105 105.321 117.105C101.335 117.105 97.6439 100.791 93.6449 65.507C91.8229 49.427 88.597 35.105 86.797 35.105C86.355 35.105 84.3799 38.593 82.4059 42.855ZM5.57096 160.855C2.04696 169.075 0.506912 178.006 0.499912 190.25C0.488912 210.656 3.10311 217.569 13.6791 225.107C17.2541 227.656 21.6381 231.652 23.4201 233.989C30.0231 242.643 33.403 260.84 34.31 292.605C34.813 310.206 34.4901 318.703 32.3161 345.105C30.8891 362.43 29.4221 382.079 29.0551 388.769C28.4081 400.586 28.461 401.058 30.935 405.279C35.919 413.784 48.7001 420.324 60.6791 420.5C72.6061 420.674 80.641 414.479 84.455 402.169C86.515 395.521 86.549 382.882 84.653 329.269C82.339 263.839 84.2821 254.402 101.347 248.186C112.237 244.219 114.668 242.81 119.581 237.615C126.283 230.529 130.814 221.292 131.445 213.431C131.878 208.036 131.605 206.654 129.341 202.792C125.641 196.477 118.901 192.588 100.982 186.428C92.4811 183.505 78.923 178.028 70.852 174.256C41.682 160.622 27.78 156.105 14.984 156.105H7.60807L5.57096 160.855ZM17.6591 172.776C17.6481 173.232 17.1841 176.754 16.6281 180.603C15.1931 190.535 15.2431 206.07 16.7211 209.306C17.4851 210.976 20.0379 213.06 23.4169 214.77C30.5169 218.362 36.8069 225.457 40.0309 233.512C49.3429 256.773 51.2251 304.17 44.7941 353.503C41.5731 378.216 40.8691 394.483 42.7831 399.975C44.8611 405.933 55.6629 410.263 63.3129 408.204C68.5489 406.794 71.3561 404.013 72.7541 398.851C74.3221 393.062 74.0359 362.827 72.2069 341.105C67.7709 288.418 67.8349 275.454 72.6039 260.063C76.7169 246.787 83.0401 240.503 97.7321 235.085C111.573 229.982 114.679 226.422 114.679 215.66C114.679 211.048 114.313 209.912 112.429 208.684C106.121 204.571 60.6291 185.922 37.1791 177.836C22.6991 172.843 17.6891 171.544 17.6591 172.776ZM55.9879 367.617C47.5949 371.146 45.8229 384.062 52.6149 392.198C55.2139 395.311 55.5151 395.415 58.4191 394.213C63.1631 392.248 65.587 388.968 66.685 383.032C68.772 371.74 63.6689 364.387 55.9879 367.617Z" fill="black"/>
</svg>
